<svg viewBox="0 0 877.16 671.38" xmlns="http://www.w3.org/2000/svg"><g transform="translate(-244.42 -48.31)"><path d="m244.42 62.24h145.22v48.63s3.43 18.5 17.81 13.7 15.07-13 21.92-13 15.76 9.59 14.39 22.6-7.54 26-19.18 21.93-15.07-15.76-24.66-9.59-10.28 16.44-10.28 27.4-.68 33.56-.68 33.56-39 .69-47.27 0c0 0-15.07-1.37-15.75-10.27s4.11-18.5 8.9-23.29 3.43-21.24-17.13-20.55-29.45 15.07-16.44 26.71 4.11 27.32-9.59 27.71-47.26 0-47.26 0z" fill="#507f85"/><path d="m693.12 55.83h145.22v48.63s3.43 18.5 17.82 13.7 15.07-13 21.92-13 15.75 9.59 14.38 22.6-7.53 26-19.18 21.93-15.07-15.76-24.66-9.6-10.28 16.45-10.28 27.41-.68 33.56-.68 33.56-39 .69-47.27 0c0 0-15.07-1.37-15.75-10.27s4.11-18.5 8.9-23.29 3.43-21.24-17.12-20.55-29.42 15.05-16.42 26.7 4.11 27.32-9.59 27.71-47.27 0-47.27 0z" fill="#507f85"/><path d="m244.42 420v-145.57s39-2.78 45.89.17 14.67-4.07 17.27-14.26-15.5-15.54-11.93-28.28 32.87-14.75 39.11-5.52-3.18 16.91-5.13 21.35-7.72 20.6 2.17 23.42 57.2 2.82 57.2 2.82v54.8c0 4.79-11 10.27-20.55 4.79s-34.25-11.64-33.57 9.59 8.91 27.4 15.76 26.72 14.36-12.33 21.88-12.33 15.75 0 16.44 6.85.04 55.45.04 55.45-43.16-.68-49.32 0-15.07 7.54-13.7 15.07 10.27 13.7 9.59 24.66-14.39 16.44-26 12.33-19.18-15.75-9.59-26 7.54-24.66-7.53-24.66-48.03-1.4-48.03-1.4z" fill="#d6d2b5"/><path d="m589.5 666.26v-145.6s39-2.78 45.9.17 14.66-4.07 17.27-14.26-15.51-15.57-11.94-28.28 32.88-14.75 39.12-5.52-3.18 16.91-5.13 21.35-7.72 20.6 2.17 23.42 57.11 2.82 57.11 2.82v54.8c0 4.79-11 10.27-20.55 4.79s-34.25-11.64-33.56 9.59 8.9 27.4 15.75 26.72 14.39-12.33 21.92-12.33 15.76 0 16.44 6.85 0 55.48 0 55.48-43.15-.68-49.32 0-15.07 7.54-13.7 15.07 10.32 13.67 9.63 24.67-14.38 16.44-26 12.33-19.18-15.75-9.59-26 7.54-24.66-7.53-24.66-47.99-1.41-47.99-1.41z" fill="#d6d2b5"/><path d="m693.12 413.62v-145.62s39-2.78 45.9.17 14.66-4.07 17.26-14.26-15.5-15.54-11.93-28.28 32.88-14.75 39.12-5.53-3.19 16.92-5.13 21.36-7.72 20.6 2.16 23.42 57.16 2.82 57.16 2.82v54.8c0 4.79-11 10.27-20.55 4.79s-34.25-11.64-33.57 9.59 8.91 27.4 15.76 26.72 14.38-12.33 21.92-12.33 15.75 0 16.44 6.85 0 55.48 0 55.48-43.16-.68-49.32 0-15.07 7.54-13.7 15.07 10.27 13.7 9.59 24.66-14.39 16.44-26 12.33-19.18-15.75-9.59-26 7.5-24.66-7.57-24.66-47.95-1.38-47.95-1.38z" fill="#e4b445"/><path d="m616.82 54.72h-143.82s-1.15 44.7 0 48.64 6.17 20.08 17.81 13.7 20.33-17.5 26.46-11.75 13.55 12.43 10 28.19-13.2 20.8-23.47 13.14-28.76-16.08-29.83 6.64-1.64 46.66-1.64 46.66 51.65 1.37 54.94 0 8.73 10.28 8.73 16.44-14.1 16.44-8.76 27.4 25.2 15.07 33.42 6.85 1.37-21.23-5.48-26.71-3.42-23 11-23.5 50.69 0 50.69 0-.68-48.18 0-53.78-6.85-12.46-15.75-9-26.77 18.46-34.99 1.36-.68-27.4 8.91-30.83 17.81 9.59 24 10.28 18.59-8.91 17.86-16.44-.08-47.29-.08-47.29z" fill="#e4b445"/><path d="m1065.53 48.31h-143.85s-1.16 44.7 0 48.64 6.17 20.08 17.81 13.7 20.32-17.5 26.45-11.75 13.56 12.43 10 28.19-13.19 20.8-23.47 13.14-28.76-16.08-29.82 6.64-1.65 46.66-1.65 46.66 51.66 1.37 54.94 0 8.77 10.28 8.77 16.44-14.11 16.44-8.77 27.4 25.21 15.07 33.43 6.85 1.37-21.23-5.48-26.71-3.43-23 11-23.5 50.69 0 50.69 0-.69-48.18 0-53.78-6.85-12.46-15.76-9-26.71 18.49-34.93 1.37-.69-27.4 8.9-30.83 17.81 9.59 24 10.28 18.58-8.91 17.85-16.44-.11-47.3-.11-47.3z" fill="#a1c2c7"/><path d="m470.35 423.45h54.94c6 0 10.41-20.55 0-24.66s-6.99-28.79 12.87-28.79 27.4 2.06 27.4 12.33-11.64 19.18-11.64 24 .68 13.7 11.64 14.38 49.4 2.74 49.4 2.74-.61-51.37 0-53.43 8.83-11.64 16.36-10.27 23.29 19.18 34.94 6.85 5.48-30.83 0-31.52-17.13 1.37-26.72 6.17-25.19-4.8-24.58-16.44-.08-46.79-.08-46.79-45.89-.9-50.69 0-19.86 2.89-11 23.5 18.5 22.38-5.48 31.05-30.41-23.47-17.94-30-.94-25.43-4.52-25-54.94 0-54.94 0v52.03c0 2.74-2.77 12.77-20.55 7.54s-35.2-6.86-33.36 13.35 13.72 29.93 26.28 16.51 27.37-6.56 27.63 1 .04 55.45.04 55.45z" fill="#a1c2c7"/><path d="m919.05 417h54.95c6 0 10.42-20.55 0-24.66s-7-28.77 12.88-28.77 27.4 2.06 27.4 12.33-11.65 19.18-11.65 24 .69 13.7 11.65 14.38 49.39 2.74 49.39 2.74-.61-51.37 0-53.43 8.83-11.64 16.37-10.27 23.29 19.18 34.93 6.85 5.48-30.83 0-31.52-17.12 1.37-26.71 6.17-25.2-4.8-24.59-16.44-.07-46.79-.07-46.79-45.9-.9-50.69 0-19.87 2.89-11 23.5 18.49 22.38-5.48 31.05-30.41-23.47-18-30-.94-25.43-4.52-25-54.94 0-54.94 0v52.06c0 2.74-2.77 12.77-20.55 7.54s-35.2-6.86-33.35 13.35 13.72 29.93 26.27 16.51 27.38-6.56 27.63 1 .08 55.4.08 55.4z" fill="#d6d2b5"/><g fill="#749fa5"><path d="m457.29 626.67h49.94s1.29-44.53 0-50 6.23-17.81 24-8.22 32.19-4.12 28.76-19.87-15.75-17.12-25.34-11-27.55 9.63-27.48-3.4 0-53.45 0-53.45-45.82.69-49.93 0-17.81 11.65-11 21.92 8.23 31.51-10.95 32.2-28.09-7.53-18.5-24.66 8-24.72-3.89-29.48-50.91 0-50.91 0v145.93s45.89 1.36 50 0 15.76-12.33 6.85-24.66-3.43-28.76 10.27-28.76 30.61 5.46 20.1 22.59-7.67 30.86 8.08 30.86z"/><path d="m906 620.26h49.93s1.29-44.53 0-50 6.23-17.83 24.07-8.26 32.2-4.12 28.77-19.87-15.77-17.13-25.38-10.94-27.55 9.63-27.47-3.4 0-53.45 0-53.45-45.82.69-49.93 0-17.82 11.66-10.99 21.93 8.22 31.51-11 32.2-28.08-7.53-18.5-24.66 8-24.72-3.89-29.48-50.91 0-50.91 0v145.93s45.9 1.36 50 0 15.75-12.33 6.84-24.66-3.43-28.76 10.27-28.76 30.61 5.46 20.11 22.59-7.68 30.83 8.08 30.83z"/></g></g></svg>