<svg xmlns="http://www.w3.org/2000/svg" viewBox="0 0 738.87 1445.19"><defs><style>.cls-1{fill:#507f85;}.cls-2{fill:#d6d2b5;}.cls-3{fill:#e4b445;}.cls-4{fill:#a1c2c7;}.cls-5{fill:#749fa5;}</style></defs><g id="Lager_2" data-name="Lager 2"><path class="cls-1" d="M724.13,221.84l.39,79.09-26.48.13S688,303,690.62,310.79s7.13,8.18,7.15,11.91-5.18,8.6-12.27,7.89-14.2-4-12-10.38,8.54-8.25,5.15-13.46-9-5.55-14.95-5.52-18.28-.28-18.28-.28-.48-21.26-.13-25.74c0,0,.71-8.21,5.56-8.61s10.08,2.19,12.7,4.79,11.58,1.8,11.15-9.39-8.29-16-14.59-8.88S645.25,255.43,645,248s-.13-25.74-.13-25.74Z" transform="translate(-29.13 43.04)"/><path class="cls-1" d="M476.69,29.17l.4,79.09-26.49.13s-10.06,1.92-7.41,9.74,7.13,8.17,7.15,11.9-5.18,8.61-12.27,7.9-14.2-4-12-10.39,8.53-8.25,5.15-13.45-9-5.55-15-5.52-18.28-.29-18.28-.29-.48-21.26-.13-25.74c0,0,.71-8.21,5.55-8.61s10.09,2.19,12.71,4.79,11.58,1.81,11.15-9.38-8.29-16-14.6-8.88-14.87,2.31-15.11-5.15-.13-25.74-.13-25.74Z" transform="translate(-29.13 43.04)"/><path class="cls-1" d="M728.84,466.18l.4,79.09-26.49.14s-10.06,1.91-7.41,9.73,7.13,8.17,7.15,11.9-5.18,8.61-12.28,7.9-14.19-4-12-10.39,8.54-8.25,5.16-13.45-9-5.55-15-5.52-18.28-.28-18.28-.28-.48-21.27-.13-25.75c0,0,.7-8.21,5.55-8.6s10.09,2.18,12.71,4.78,11.57,1.81,11.14-9.38-8.28-16-14.59-8.88-14.87,2.31-15.11-5.15-.13-25.74-.13-25.74Z" transform="translate(-29.13 43.04)"/><path class="cls-1" d="M743.54,855.32l.39,79.08-26.48.14s-10.07,1.91-7.42,9.73,7.13,8.18,7.15,11.91-5.18,8.6-12.27,7.89-14.2-4-12-10.38,8.54-8.25,5.16-13.46-9-5.55-15-5.52-18.29-.28-18.29-.28-.48-21.26-.13-25.74c0,0,.71-8.21,5.56-8.61s10.08,2.19,12.71,4.78,11.57,1.81,11.14-9.38-8.29-16-14.59-8.88-14.87,2.31-15.12-5.15-.13-25.74-.13-25.74Z" transform="translate(-29.13 43.04)"/><path class="cls-1" d="M496.1,662.65l.4,79.09-26.49.13s-10.06,1.92-7.41,9.74,7.13,8.17,7.15,11.9-5.18,8.61-12.27,7.9-14.2-4-12-10.39,8.54-8.25,5.15-13.45-9-5.55-14.95-5.53-18.28-.28-18.28-.28-.48-21.26-.13-25.74c0,0,.71-8.21,5.55-8.61s10.09,2.19,12.71,4.79,11.58,1.81,11.15-9.38-8.29-16-14.6-8.88-14.87,2.31-15.11-5.15-.13-25.74-.13-25.74Z" transform="translate(-29.13 43.04)"/><path class="cls-1" d="M748.25,1099.66l.4,79.09-26.49.14s-10.06,1.91-7.41,9.73,7.13,8.17,7.15,11.9-5.18,8.61-12.27,7.9-14.2-4-12-10.39,8.54-8.25,5.16-13.45-9-5.55-14.95-5.52-18.28-.28-18.28-.28-.48-21.27-.13-25.75c0,0,.7-8.21,5.55-8.6s10.09,2.18,12.71,4.78,11.57,1.81,11.15-9.38-8.29-16-14.6-8.88-14.87,2.31-15.11-5.15-.13-25.74-.13-25.74Z" transform="translate(-29.13 43.04)"/></g><g id="Lager_3" data-name="Lager 3"><path class="cls-2" d="M529.27,222.81l79.3-.39s1.62,21.25,0,25,2.25,8,7.81,9.36,8.42-8.48,15.37-6.57,8.13,17.86,3.12,21.29-9.22-1.69-11.65-2.74S612,264.6,610.5,270s-1.37,31.13-1.37,31.13l-29.85.15c-2.61,0-5.62-5.94-2.67-11.18s6.25-18.68-5.31-18.25-14.9,4.92-14.51,8.65,6.76,7.8,6.78,11.9,0,8.59-3.69,9-30.21.15-30.21.15.25-23.51-.14-26.86-4.14-8.19-8.24-7.42-7.44,5.63-13.41,5.29-9-7.79-6.78-14.14,8.52-10.49,14.15-5.3,13.45,4,13.41-4.17S529.27,222.81,529.27,222.81Z" transform="translate(-29.13 43.04)"/><path class="cls-2" d="M281.84,30.15l79.29-.4s1.63,21.26,0,25,2.25,8,7.81,9.36,8.42-8.49,15.37-6.58,8.12,17.87,3.11,21.29-9.21-1.69-11.64-2.73-11.24-4.15-12.75,1.24-1.38,31.14-1.38,31.14l-29.84.15c-2.61,0-5.63-6-2.67-11.18s6.25-18.69-5.31-18.26-14.9,4.93-14.51,8.66,6.75,7.8,6.78,11.9,0,8.58-3.69,9-30.22.15-30.22.15.26-23.5-.13-26.86-4.15-8.18-8.25-7.42-7.43,5.64-13.4,5.29-9-7.79-6.79-14.14,8.53-10.49,14.15-5.29,13.45,4,13.41-4.17S281.84,30.15,281.84,30.15Z" transform="translate(-29.13 43.04)"/><path class="cls-2" d="M268.74,239.76l-.85,79.29s-21.28,1.29-25-.35-8,2.12-9.49,7.66,8.36,8.55,6.34,15.47-18,7.84-21.34,2.78,1.84-9.19,2.92-11.6,4.33-11.17-1-12.76-31.11-1.87-31.11-1.87l.32-29.84c0-2.61,6-5.54,11.22-2.5s18.58,6.55,18.33-5-4.69-15-8.42-14.64-7.91,6.63-12,6.58-8.58-.09-8.92-3.82.33-30.22.33-30.22,23.49.63,26.86.29,8.25-4,7.54-8.13-5.51-7.52-5.08-13.48,7.93-8.87,14.25-6.57,10.36,8.69,5.07,14.23-4.24,13.39,4,13.48S268.74,239.76,268.74,239.76Z" transform="translate(-29.13 43.04)"/><path class="cls-2" d="M396.11,411.42l79.3-.4s1.62,21.26,0,25,2.26,8,7.82,9.36,8.41-8.49,15.36-6.57,8.13,17.86,3.12,21.28-9.22-1.68-11.64-2.73-11.24-4.15-12.75,1.24S476,489.74,476,489.74l-29.84.15c-2.62,0-5.63-5.95-2.67-11.18s6.25-18.69-5.32-18.26-14.89,4.93-14.5,8.66,6.75,7.8,6.77,11.9,0,8.58-3.68,9-30.22.15-30.22.15.25-23.5-.14-26.86-4.14-8.18-8.24-7.42-7.43,5.64-13.4,5.29-9-7.79-6.79-14.14,8.53-10.49,14.15-5.29,13.45,4,13.41-4.17S396.11,411.42,396.11,411.42Z" transform="translate(-29.13 43.04)"/><path class="cls-3" d="M534,467.16l79.29-.4s1.62,21.26,0,25,2.26,8,7.82,9.36,8.42-8.48,15.36-6.57,8.13,17.86,3.12,21.28-9.22-1.68-11.64-2.73-11.24-4.15-12.75,1.24-1.38,31.14-1.38,31.14l-29.84.15c-2.61,0-5.63-5.94-2.67-11.18s6.25-18.69-5.31-18.26-14.9,4.93-14.51,8.66,6.75,7.8,6.77,11.9.05,8.58-3.68,9-30.22.16-30.22.16.26-23.51-.13-26.86-4.15-8.19-8.25-7.42-7.43,5.63-13.4,5.29-9-7.79-6.79-14.15,8.53-10.49,14.15-5.29,13.45,4,13.41-4.17S534,467.16,534,467.16Z" transform="translate(-29.13 43.04)"/><path class="cls-2" d="M141.55,479.79l79.3-.4s1.62,21.26,0,25,2.25,8,7.81,9.36,8.42-8.49,15.37-6.58,8.13,17.87,3.12,21.29-9.22-1.69-11.65-2.73-11.24-4.15-12.74,1.24-1.38,31.13-1.38,31.13l-29.85.15c-2.61,0-5.62-5.94-2.67-11.18s6.25-18.68-5.31-18.25-14.9,4.93-14.51,8.65,6.76,7.81,6.78,11.91,0,8.58-3.69,9-30.21.15-30.21.15.25-23.5-.14-26.86-4.14-8.18-8.24-7.42-7.44,5.64-13.41,5.29-9-7.79-6.78-14.14,8.52-10.49,14.15-5.29,13.45,4,13.41-4.18S141.55,479.79,141.55,479.79Z" transform="translate(-29.13 43.04)"/><path class="cls-3" d="M279.42,535.53l79.3-.4s1.62,21.26,0,25,2.26,8,7.81,9.36,8.42-8.49,15.37-6.58,8.13,17.87,3.12,21.29-9.22-1.69-11.65-2.73-11.24-4.15-12.74,1.24-1.38,31.14-1.38,31.14l-29.85.15c-2.61,0-5.62-6-2.66-11.18s6.24-18.69-5.32-18.26-14.9,4.93-14.5,8.66,6.75,7.8,6.77,11.9,0,8.58-3.69,9-30.21.15-30.21.15.25-23.5-.14-26.86-4.14-8.18-8.24-7.42S264,585.6,258,585.25s-9-7.79-6.78-14.14,8.53-10.49,14.15-5.29,13.45,4,13.41-4.17S279.42,535.53,279.42,535.53Z" transform="translate(-29.13 43.04)"/><path class="cls-2" d="M639.89-16.26l79.3-.4s1.62,21.26,0,25,2.26,8,7.81,9.36,8.42-8.49,15.37-6.58,8.13,17.87,3.12,21.29-9.22-1.69-11.64-2.73-11.25-4.15-12.75,1.24-1.38,31.14-1.38,31.14l-29.85.14c-2.61,0-5.62-5.94-2.66-11.17s6.25-18.69-5.32-18.26-14.9,4.93-14.5,8.66,6.75,7.8,6.77,11.9,0,8.58-3.68,9-30.22.15-30.22.15.25-23.5-.14-26.86-4.14-8.18-8.24-7.42-7.43,5.64-13.41,5.29-9-7.79-6.78-14.14S620.25,8.83,625.87,14s13.45,4,13.41-4.17S639.89-16.26,639.89-16.26Z" transform="translate(-29.13 43.04)"/><path class="cls-3" d="M535.2,107.79l79.3-.4s1.62,21.26,0,25,2.26,8,7.81,9.36,8.42-8.49,15.37-6.58,8.13,17.87,3.12,21.29-9.22-1.69-11.65-2.73-11.24-4.15-12.74,1.24-1.38,31.13-1.38,31.13l-29.85.15c-2.61,0-5.62-5.94-2.66-11.17s6.24-18.69-5.32-18.26-14.9,4.93-14.51,8.66,6.76,7.8,6.78,11.9,0,8.58-3.69,9-30.21.15-30.21.15.25-23.5-.14-26.86-4.14-8.18-8.24-7.42-7.44,5.64-13.41,5.29-9-7.79-6.78-14.14,8.52-10.49,14.15-5.29,13.45,4,13.41-4.17S535.2,107.79,535.2,107.79Z" transform="translate(-29.13 43.04)"/><path class="cls-2" d="M548.68,856.29l79.3-.39s1.62,21.25,0,25,2.26,8,7.81,9.36,8.42-8.48,15.37-6.57,8.13,17.86,3.12,21.29-9.22-1.69-11.65-2.74-11.24-4.15-12.74,1.25-1.38,31.13-1.38,31.13l-29.85.15c-2.61,0-5.62-5.94-2.66-11.18s6.24-18.68-5.32-18.25-14.9,4.92-14.51,8.65,6.76,7.8,6.78,11.9,0,8.58-3.69,9-30.21.15-30.21.15.25-23.51-.14-26.86-4.14-8.19-8.24-7.42-7.44,5.63-13.41,5.29-9-7.79-6.78-14.14,8.53-10.49,14.15-5.3,13.45,4,13.41-4.17S548.68,856.29,548.68,856.29Z" transform="translate(-29.13 43.04)"/><path class="cls-2" d="M288.15,873.24l-.85,79.29s-21.28,1.29-25-.35-8,2.12-9.49,7.66,8.36,8.55,6.34,15.47-18,7.84-21.34,2.78,1.84-9.19,2.92-11.6,4.33-11.17-1-12.76-31.11-1.87-31.11-1.87l.32-29.84c0-2.62,6-5.54,11.22-2.5s18.58,6.55,18.33-5-4.69-15-8.42-14.64-7.91,6.63-12,6.58-8.58-.09-8.92-3.82.33-30.22.33-30.22,23.49.63,26.86.29,8.25-4,7.54-8.13-5.51-7.52-5.07-13.48,7.92-8.87,14.24-6.57,10.36,8.69,5.07,14.23-4.24,13.39,4,13.48S288.15,873.24,288.15,873.24Z" transform="translate(-29.13 43.04)"/><path class="cls-2" d="M415.53,1044.9l79.29-.4s1.62,21.26,0,25,2.26,8,7.82,9.36,8.42-8.49,15.36-6.57,8.13,17.86,3.12,21.28-9.22-1.69-11.64-2.73-11.24-4.15-12.75,1.24-1.38,31.14-1.38,31.14l-29.84.15c-2.61,0-5.63-5.95-2.67-11.18s6.25-18.69-5.31-18.26-14.9,4.93-14.51,8.66,6.75,7.8,6.77,11.9.05,8.58-3.68,9-30.22.15-30.22.15.26-23.5-.13-26.86-4.15-8.18-8.25-7.42-7.43,5.64-13.4,5.29-9-7.79-6.79-14.14,8.53-10.49,14.15-5.29,13.45,4,13.41-4.17S415.53,1044.9,415.53,1044.9Z" transform="translate(-29.13 43.04)"/><path class="cls-3" d="M553.4,1100.64l79.29-.4s1.62,21.26,0,25,2.25,8,7.81,9.36,8.42-8.48,15.36-6.57,8.13,17.86,3.12,21.28-9.22-1.68-11.64-2.73-11.24-4.15-12.75,1.24-1.38,31.14-1.38,31.14l-29.84.15c-2.61,0-5.63-5.94-2.67-11.18s6.25-18.69-5.31-18.26-14.9,4.93-14.51,8.66,6.75,7.8,6.77,11.9,0,8.58-3.68,9-30.22.16-30.22.16.26-23.51-.13-26.86-4.15-8.19-8.25-7.42-7.43,5.63-13.4,5.29-9-7.79-6.79-14.15,8.53-10.49,14.15-5.29,13.45,4,13.41-4.17S553.4,1100.64,553.4,1100.64Z" transform="translate(-29.13 43.04)"/><path class="cls-2" d="M161,1113.27l79.3-.4s1.62,21.26,0,25,2.26,8,7.81,9.37,8.42-8.49,15.37-6.58,8.13,17.87,3.12,21.29-9.22-1.69-11.65-2.73-11.24-4.15-12.74,1.24-1.38,31.13-1.38,31.13l-29.85.15c-2.61,0-5.62-5.94-2.66-11.18s6.24-18.68-5.32-18.25-14.9,4.93-14.5,8.65,6.75,7.8,6.77,11.91,0,8.58-3.69,9-30.21.15-30.21.15.25-23.5-.14-26.86-4.14-8.18-8.24-7.42-7.44,5.63-13.41,5.29-9-7.79-6.78-14.14,8.53-10.49,14.15-5.29,13.45,4,13.41-4.18S161,1113.27,161,1113.27Z" transform="translate(-29.13 43.04)"/><path class="cls-4" d="M161.08,951,81.8,952.08s-1.82-21.24-.27-25-2.32-8-7.89-9.29-8.35,8.56-15.31,6.72S50,906.72,55,903.25s9.23,1.6,11.67,2.63,11.27,4,12.73-1.36,1.09-31.15,1.09-31.15l29.85-.42c2.61,0,5.68,5.89,2.77,11.15s-6.08,18.74,5.48,18.21,14.85-5.06,14.42-8.79-6.82-7.74-6.88-11.84-.12-8.58,3.6-9,30.22-.43,30.22-.43,0,23.51.38,26.86,4.22,8.15,8.31,7.35S176,900.75,182,901s9.06,7.71,6.91,14.08-8.43,10.57-14.1,5.43-13.49-3.92-13.37,4.29S161.08,951,161.08,951Z" transform="translate(-29.13 43.04)"/><path class="cls-3" d="M298.83,1169l79.3-.4s1.62,21.26,0,25,2.26,8,7.81,9.36,8.42-8.49,15.37-6.58,8.13,17.87,3.12,21.29-9.22-1.69-11.64-2.73-11.25-4.15-12.75,1.24-1.38,31.14-1.38,31.14l-29.85.14c-2.61,0-5.62-5.94-2.66-11.17s6.25-18.69-5.32-18.26-14.9,4.93-14.5,8.66,6.75,7.8,6.77,11.9,0,8.58-3.68,9-30.22.15-30.22.15.25-23.5-.14-26.86-4.14-8.18-8.24-7.42-7.43,5.64-13.41,5.29-9-7.79-6.78-14.14,8.53-10.49,14.15-5.29,13.45,4,13.41-4.17S298.83,1169,298.83,1169Z" transform="translate(-29.13 43.04)"/><path class="cls-2" d="M659.3,617.22l79.3-.4s1.62,21.26,0,25,2.26,8,7.82,9.36,8.41-8.49,15.36-6.58,8.13,17.87,3.12,21.29-9.22-1.69-11.64-2.73-11.24-4.15-12.75,1.24-1.38,31.14-1.38,31.14l-29.84.14c-2.62,0-5.63-5.94-2.67-11.17s6.25-18.69-5.32-18.26-14.89,4.93-14.5,8.66,6.75,7.8,6.77,11.9,0,8.58-3.68,9-30.22.15-30.22.15.25-23.5-.14-26.86-4.14-8.18-8.24-7.42-7.43,5.64-13.4,5.29-9-7.79-6.79-14.14,8.53-10.49,14.15-5.29,13.45,4,13.41-4.17S659.3,617.22,659.3,617.22Z" transform="translate(-29.13 43.04)"/><path class="cls-3" d="M554.61,741.27l79.3-.4s1.62,21.26,0,25,2.26,8,7.81,9.36,8.42-8.49,15.37-6.58,8.13,17.87,3.12,21.29-9.22-1.69-11.65-2.73-11.24-4.15-12.74,1.24-1.38,31.13-1.38,31.13l-29.85.15c-2.61,0-5.62-5.94-2.66-11.17s6.24-18.69-5.32-18.26-14.9,4.93-14.5,8.65,6.75,7.81,6.77,11.91,0,8.58-3.69,9S555,820,555,820s.25-23.5-.14-26.86-4.14-8.18-8.24-7.42-7.44,5.64-13.41,5.29-9-7.79-6.78-14.14,8.53-10.49,14.15-5.29,13.45,4,13.41-4.17S554.61,741.27,554.61,741.27Z" transform="translate(-29.13 43.04)"/></g><g id="Lager_4" data-name="Lager 4"><path class="cls-3" d="M729.24,424.63l-.4-78.34s-24.34-.51-26.48.13-10.93,3.42-7.42,9.74,9.59,11,6.47,14.37-6.73,7.42-15.32,5.52-11.36-7.13-7.22-12.75,8.68-15.7-3.7-16.22-25.42-.77-25.42-.77-.6,28.14.15,29.92-5.57,4.8-8.93,4.82-9-7.64-14.94-4.7-8.14,13.77-3.64,18.22,11.57.69,14.53-3.05,12.53-1.93,12.83,5.9.14,27.61.14,27.61,26.24-.51,29.29-.15,6.76-3.76,4.87-8.61-10.14-14.49-.84-19S698.13,396.8,700,402s-5.17,9.72-5.53,13.08,4.9,10.1,9,9.68S729.24,424.63,729.24,424.63Z" transform="translate(-29.13 43.04)"/><path class="cls-3" d="M481.8,232l-.39-78.34s-24.35-.51-26.49.13-10.92,3.42-7.41,9.74,9.59,11,6.47,14.38-6.73,7.41-15.32,5.52-11.37-7.13-7.22-12.75,8.68-15.71-3.7-16.22-25.42-.77-25.42-.77-.6,28.13.15,29.92-5.57,4.8-8.93,4.81-9-7.63-15-4.69-8.13,13.76-3.63,18.22,11.56.69,14.53-3.06,12.53-1.93,12.83,5.91.14,27.6.14,27.6,26.23-.5,29.29-.14,6.76-3.77,4.87-8.61-10.15-14.5-.84-19,14.92-.45,16.81,4.76-5.17,9.73-5.53,13.09,4.9,10.09,9,9.68S481.8,232,481.8,232Z" transform="translate(-29.13 43.04)"/><path class="cls-3" d="M748.65,1058.11l-.4-78.34s-24.34-.51-26.48.13-10.93,3.41-7.41,9.74,9.58,11,6.46,14.37-6.73,7.42-15.32,5.52-11.36-7.13-7.22-12.75,8.68-15.7-3.7-16.22-25.42-.77-25.42-.77-.6,28.14.15,29.92-5.57,4.8-8.93,4.82-9-7.64-14.94-4.7-8.14,13.77-3.64,18.22,11.57.69,14.53-3,12.54-1.93,12.83,5.9.14,27.61.14,27.61,26.24-.51,29.29-.15,6.76-3.77,4.87-8.61-10.14-14.49-.84-19,14.92-.45,16.81,4.77-5.17,9.72-5.53,13.08,4.9,10.1,9,9.68S748.65,1058.11,748.65,1058.11Z" transform="translate(-29.13 43.04)"/><path class="cls-3" d="M501.21,865.44l-.39-78.34s-24.35-.51-26.49.13-10.92,3.42-7.41,9.74,9.59,11,6.47,14.38-6.73,7.41-15.32,5.52-11.36-7.13-7.22-12.75,8.68-15.71-3.7-16.22-25.42-.77-25.42-.77-.6,28.13.15,29.92-5.57,4.8-8.93,4.81-9-7.63-14.94-4.69-8.14,13.76-3.64,18.22,11.56.69,14.53-3.06,12.53-1.93,12.83,5.91.14,27.6.14,27.6,26.23-.5,29.29-.14,6.76-3.77,4.87-8.61-10.14-14.5-.84-19,14.92-.45,16.81,4.76-5.17,9.73-5.53,13.09,4.9,10.09,9,9.68S501.21,865.44,501.21,865.44Z" transform="translate(-29.13 43.04)"/><path class="cls-4" d="M753.36,1302.46l-.39-78.35s-24.35-.5-26.49.14-10.92,3.41-7.41,9.73,9.58,11,6.47,14.38-6.73,7.42-15.32,5.52-11.37-7.13-7.22-12.75,8.68-15.7-3.7-16.22-25.42-.77-25.42-.77-.61,28.13.15,29.92-5.57,4.8-8.93,4.82-9-7.64-15-4.7S642,1268,646.51,1272.4s11.57.69,14.54-3.06,12.53-1.93,12.83,5.91.14,27.6.14,27.6,26.23-.5,29.29-.14,6.76-3.77,4.87-8.61-10.15-14.5-.84-19,14.92-.45,16.81,4.77-5.17,9.72-5.53,13.08,4.9,10.1,9,9.68S753.36,1302.46,753.36,1302.46Z" transform="translate(-29.13 43.04)"/></g><g id="Lager_5" data-name="Lager 5"><path class="cls-4" d="M528,345.86l.15,29.92c0,3.28,11.22,5.62,13.43-.06s15.65-3.89,15.7,6.93-1,14.93-6.64,15-10.48-6.29-13.09-6.28-7.46.41-7.8,6.38-1.36,26.91-1.36,26.91,28-.47,29.1-.15,6.37,4.78,5.64,8.89-10.38,12.73-3.64,19,16.81,2.9,17.16-.08-.79-9.33-3.43-14.54,2.55-13.73,8.89-13.43,25.48-.17,25.48-.17.37-25-.13-27.61-1.64-10.81-12.83-5.9-12.14,10.13-16.93-2.9,12.7-16.62,16.29-9.85,13.85-.59,13.62-2.53-.15-29.93-.15-29.93l-28.36.15c-1.49,0-7-1.48-4.15-11.17s3.63-19.19-7.37-18.13-16.26,7.55-8.92,14.35,3.65,14.89-.45,15S528,345.86,528,345.86Z" transform="translate(-29.13 43.04)"/><path class="cls-4" d="M280.59,153.2l.15,29.92c0,3.28,11.22,5.62,13.43-.07s15.65-3.88,15.71,6.94-1.05,14.92-6.64,14.95-10.48-6.29-13.09-6.28-7.46.42-7.81,6.39S281,232,281,232s28-.47,29.1-.14,6.36,4.78,5.64,8.88-10.39,12.74-3.64,19.05,16.8,2.9,17.16-.09-.79-9.32-3.43-14.53,2.54-13.74,8.89-13.44,25.48-.16,25.48-.16.36-25-.14-27.61-1.63-10.81-12.83-5.9-12.13,10.13-16.92-2.9,12.7-16.63,16.29-9.86,13.85-.58,13.61-2.53-.15-29.92-.15-29.92l-28.35.14c-1.49,0-7-1.47-4.16-11.17s3.64-19.19-7.36-18.13-16.26,7.56-8.92,14.36,3.65,14.89-.45,15.05S280.59,153.2,280.59,153.2Z" transform="translate(-29.13 43.04)"/><path class="cls-2" d="M532.74,590.21l.15,29.92c0,3.28,11.22,5.62,13.43-.07S562,616.18,562,627s-1,14.93-6.64,15-10.47-6.29-13.08-6.27-7.46.41-7.81,6.38S533.14,669,533.14,669s28-.48,29.09-.15,6.37,4.78,5.64,8.89-10.38,12.73-3.63,19,16.8,2.9,17.16-.09-.79-9.32-3.43-14.53,2.54-13.73,8.89-13.43,25.48-.17,25.48-.17.36-25-.14-27.61-1.63-10.81-12.83-5.9-12.14,10.13-16.93-2.9,12.71-16.63,16.3-9.86,13.84-.58,13.61-2.53-.15-29.92-.15-29.92l-28.35.14c-1.49,0-7-1.47-4.16-11.17s3.64-19.18-7.36-18.13-16.26,7.56-8.92,14.36,3.64,14.89-.45,15S532.74,590.21,532.74,590.21Z" transform="translate(-29.13 43.04)"/><path class="cls-4" d="M273.46,414.23l.15,29.92c0,3.28,11.22,5.62,13.43-.07s15.65-3.88,15.71,6.94-1.05,14.93-6.64,15-10.48-6.29-13.09-6.27-7.46.41-7.81,6.38S273.86,493,273.86,493s28-.48,29.1-.15,6.36,4.78,5.64,8.89-10.39,12.73-3.64,19,16.8,2.9,17.16-.09-.79-9.32-3.43-14.53,2.54-13.73,8.89-13.43,25.48-.17,25.48-.17.36-25-.14-27.61-1.63-10.81-12.83-5.9-12.13,10.13-16.92-2.9,12.7-16.63,16.29-9.86,13.85-.58,13.61-2.53-.15-29.92-.15-29.92l-28.35.14c-1.49,0-7-1.47-4.16-11.17s3.64-19.18-7.36-18.12-16.26,7.55-8.92,14.35,3.65,14.89-.45,15.05S273.46,414.23,273.46,414.23Z" transform="translate(-29.13 43.04)"/><path class="cls-4" d="M507.24-13.4l.15,29.92c0,3.28,11.22,5.62,13.43-.07s15.65-3.88,15.7,6.94-1,14.93-6.64,15-10.47-6.29-13.09-6.27-7.45.41-7.8,6.38-1.36,26.91-1.36,26.91,28-.48,29.1-.15,6.37,4.78,5.64,8.89-10.38,12.73-3.63,19,16.8,2.9,17.16-.09-.79-9.32-3.43-14.53,2.54-13.73,8.89-13.43,25.48-.17,25.48-.17.36-25-.14-27.61-1.63-10.81-12.83-5.9-12.14,10.13-16.93-2.9,12.71-16.63,16.3-9.86,13.84-.58,13.61-2.53-.15-29.92-.15-29.92l-28.35.14c-1.49,0-7-1.47-4.16-11.17S557.83-44,546.83-43s-16.26,7.56-8.92,14.36,3.64,14.89-.45,15.05S507.24-13.4,507.24-13.4Z" transform="translate(-29.13 43.04)"/><path class="cls-2" d="M278.18,658.58l.15,29.92c0,3.28,11.22,5.62,13.43-.07s15.65-3.88,15.7,6.94-1,14.92-6.64,15S290.34,704,287.73,704s-7.46.42-7.8,6.39-1.36,26.9-1.36,26.9,28-.47,29.1-.14,6.37,4.78,5.64,8.88-10.38,12.74-3.63,19,16.8,2.9,17.16-.09-.8-9.32-3.43-14.53,2.54-13.74,8.88-13.44,25.49-.16,25.49-.16.36-25-.14-27.61-1.63-10.81-12.83-5.9-12.14,10.13-16.93-2.9,12.7-16.63,16.29-9.86,13.85-.58,13.62-2.53-.15-29.92-.15-29.92l-28.35.14c-1.5,0-7-1.47-4.16-11.17S328.76,628,317.76,629s-16.26,7.56-8.91,14.36,3.64,14.89-.46,15S278.18,658.58,278.18,658.58Z" transform="translate(-29.13 43.04)"/><path class="cls-4" d="M547.44,979.34l.15,29.92c0,3.28,11.22,5.62,13.43-.06s15.65-3.89,15.7,6.93-1,14.93-6.64,15-10.48-6.29-13.09-6.28-7.46.41-7.8,6.38-1.36,26.91-1.36,26.91,28-.47,29.1-.15,6.37,4.78,5.64,8.89-10.38,12.73-3.63,19,16.8,2.9,17.16-.08-.8-9.33-3.43-14.54,2.54-13.73,8.88-13.43,25.48-.17,25.48-.17.37-25-.13-27.61-1.63-10.81-12.83-5.9-12.14,10.13-16.93-2.9,12.7-16.62,16.29-9.85,13.85-.59,13.62-2.53-.15-29.93-.15-29.93l-28.35.15c-1.5,0-7-1.48-4.16-11.17S598,948.73,587,949.79s-16.26,7.55-8.91,14.35,3.64,14.89-.46,15.05S547.44,979.34,547.44,979.34Z" transform="translate(-29.13 43.04)"/><path class="cls-4" d="M300,786.68l.15,29.92c0,3.28,11.22,5.62,13.43-.07s15.65-3.88,15.71,6.93-1.05,14.93-6.64,15-10.48-6.29-13.09-6.28-7.46.41-7.8,6.39-1.36,26.9-1.36,26.9,28-.47,29.1-.14,6.36,4.78,5.64,8.88-10.39,12.74-3.64,19.05,16.8,2.9,17.16-.09-.79-9.32-3.43-14.53,2.54-13.74,8.89-13.44S379.6,865,379.6,865s.36-25-.14-27.61-1.63-10.81-12.83-5.9-12.13,10.13-16.92-2.9S362.41,812,366,818.73s13.85-.58,13.61-2.53-.15-29.92-.15-29.92l-28.35.14c-1.49,0-7-1.47-4.16-11.17s3.64-19.19-7.36-18.13-16.26,7.56-8.92,14.36,3.65,14.89-.45,15S300,786.68,300,786.68Z" transform="translate(-29.13 43.04)"/><path class="cls-2" d="M552.15,1223.69l.15,29.92c0,3.28,11.22,5.62,13.43-.07s15.65-3.88,15.71,6.94-1.05,14.93-6.65,15-10.47-6.29-13.08-6.27-7.46.41-7.81,6.38-1.35,26.91-1.35,26.91,28-.48,29.09-.15,6.37,4.78,5.65,8.89-10.39,12.73-3.64,19,16.8,2.9,17.16-.09-.79-9.32-3.43-14.53,2.54-13.73,8.89-13.43,25.48-.17,25.48-.17.36-25-.14-27.61-1.63-10.81-12.83-5.9-12.14,10.13-16.93-2.9,12.71-16.63,16.3-9.86,13.84-.58,13.61-2.53-.15-29.92-.15-29.92l-28.35.14c-1.49,0-7-1.47-4.16-11.17s3.64-19.18-7.36-18.13-16.26,7.56-8.92,14.36,3.64,14.89-.45,15S552.15,1223.69,552.15,1223.69Z" transform="translate(-29.13 43.04)"/><path class="cls-4" d="M292.87,1047.71l.15,29.92c0,3.28,11.22,5.62,13.43-.07s15.65-3.88,15.71,6.94-1.05,14.93-6.64,15-10.48-6.29-13.09-6.27-7.46.41-7.8,6.38-1.36,26.91-1.36,26.91,28-.48,29.1-.15,6.36,4.78,5.64,8.89-10.39,12.73-3.64,19,16.8,2.9,17.16-.09-.79-9.32-3.43-14.53,2.54-13.73,8.89-13.43,25.48-.17,25.48-.17.36-25-.14-27.61-1.63-10.81-12.83-5.9-12.13,10.13-16.92-2.9,12.7-16.63,16.29-9.86,13.85-.58,13.61-2.53-.15-29.92-.15-29.92l-28.35.14c-1.49,0-7-1.47-4.16-11.17s3.64-19.18-7.36-18.12-16.26,7.55-8.92,14.35,3.65,14.89-.45,15S292.87,1047.71,292.87,1047.71Z" transform="translate(-29.13 43.04)"/><path class="cls-4" d="M29.13,1112.23l.15,29.92c0,3.28,11.22,5.62,13.43-.06s15.65-3.89,15.7,6.93-1,14.93-6.64,15-10.48-6.29-13.09-6.27-7.46.41-7.8,6.38S29.52,1191,29.52,1191s28-.48,29.1-.15,6.37,4.78,5.64,8.89-10.38,12.73-3.64,19,16.81,2.9,17.17-.08-.8-9.33-3.44-14.54,2.55-13.73,8.89-13.43,25.48-.17,25.48-.17.37-25-.13-27.61-1.63-10.81-12.83-5.9-12.14,10.13-16.93-2.9,12.7-16.63,16.29-9.86,13.85-.58,13.62-2.53-.15-29.92-.15-29.92l-28.35.15c-1.5,0-7-1.48-4.16-11.18s3.63-19.18-7.37-18.12-16.26,7.55-8.92,14.35,3.65,14.89-.45,15S29.13,1112.23,29.13,1112.23Z" transform="translate(-29.13 43.04)"/><path class="cls-2" d="M297.59,1292.06l.15,29.92c0,3.28,11.22,5.62,13.43-.07s15.65-3.88,15.7,6.94-1,14.92-6.64,15-10.48-6.29-13.09-6.28-7.46.41-7.8,6.39-1.36,26.9-1.36,26.9,28-.47,29.1-.14,6.37,4.78,5.64,8.88-10.38,12.74-3.63,19,16.8,2.9,17.16-.09-.8-9.32-3.43-14.53,2.54-13.74,8.88-13.44,25.49-.16,25.49-.16.36-25-.14-27.61-1.63-10.81-12.83-5.9-12.14,10.13-16.93-2.9,12.7-16.63,16.29-9.86,13.85-.58,13.62-2.53-.15-29.92-.15-29.92l-28.35.14c-1.5,0-7-1.47-4.16-11.17s3.64-19.19-7.37-18.13-16.26,7.56-8.91,14.36,3.64,14.89-.45,15.05S297.59,1292.06,297.59,1292.06Z" transform="translate(-29.13 43.04)"/></g><g id="Lager_6" data-name="Lager 6"><path class="cls-5" d="M417.32,339.31l.14,27.19s24.25.58,27.23-.14,9.72,3.35,4.55,13.08,2.33,17.52,10.9,15.61,9.28-8.63,5.89-13.84-5.31-15,1.78-15,29.11-.15,29.11-.15-.5-24.95-.14-27.19-6.39-9.67-12-5.91-17.14,4.57-17.56-5.88,4-15.31,13.38-10.14,13.48,4.28,16-2.2-.14-27.73-.14-27.73l-79.48.41s-.62,25,.14,27.24,6.76,8.54,13.45,3.66,15.65-2,15.7,5.51-2.9,16.69-12.26,11S417.27,330.73,417.32,339.31Z" transform="translate(-29.13 43.04)"/><path class="cls-5" d="M306.26,330l.14,27.19s24.25.58,27.24-.14,9.71,3.35,4.54,13.08,2.33,17.52,10.9,15.61,9.28-8.63,5.9-13.83-5.32-15,1.78-15,29.1-.15,29.1-.15-.5-24.95-.14-27.19-6.39-9.67-12-5.91-17.13,4.57-17.56-5.88,4-15.31,13.38-10.14,13.48,4.28,16-2.2-.14-27.73-.14-27.73l-79.48.42s-.61,25,.14,27.23,6.76,8.54,13.45,3.66,15.66-1.95,15.7,5.51-2.9,16.69-12.25,11S306.22,321.39,306.26,330Z" transform="translate(-29.13 43.04)"/><path class="cls-5" d="M422,583.66l.14,27.19s24.26.58,27.24-.14,9.71,3.35,4.54,13.07,2.33,17.53,10.9,15.62,9.28-8.63,5.9-13.84-5.32-15,1.78-15,29.11-.15,29.11-.15-.51-25-.14-27.19-6.4-9.67-12-5.91-17.14,4.56-17.57-5.88,4-15.32,13.38-10.14,13.48,4.28,16.05-2.2-.15-27.73-.15-27.73l-79.47.41s-.62,25,.14,27.23,6.76,8.55,13.45,3.67,15.65-2,15.69,5.51-2.89,16.68-12.25,11S422,575.08,422,583.66Z" transform="translate(-29.13 43.04)"/><path class="cls-5" d="M655.81,156l.14,27.19s24.26.58,27.24-.14,9.71,3.35,4.54,13.07,2.33,17.52,10.9,15.62,9.28-8.63,5.9-13.84-5.32-15,1.78-15,29.1-.15,29.1-.15-.5-24.95-.14-27.19-6.39-9.67-12-5.91-17.13,4.56-17.56-5.88,4-15.32,13.38-10.14,13.48,4.28,16-2.2-.14-27.73-.14-27.73l-79.48.41s-.61,25,.14,27.23,6.76,8.55,13.45,3.67,15.66-1.95,15.7,5.51-2.9,16.68-12.25,11S655.77,147.45,655.81,156Z" transform="translate(-29.13 43.04)"/><path class="cls-3" d="M162.76,407.68l.14,27.19s24.25.58,27.23-.14,9.72,3.35,4.54,13.07,2.33,17.53,10.9,15.62,9.29-8.63,5.9-13.84-5.32-15,1.78-15,29.11-.15,29.11-.15-.5-24.95-.14-27.19-6.4-9.67-12-5.91-17.14,4.56-17.57-5.88,4-15.32,13.38-10.14,13.48,4.28,16.05-2.2-.15-27.73-.15-27.73l-79.47.41s-.62,25,.14,27.24,6.76,8.54,13.45,3.66,15.65-2,15.69,5.51-2.89,16.68-12.25,11S162.71,399.1,162.76,407.68Z" transform="translate(-29.13 43.04)"/><path class="cls-5" d="M167.47,652l.14,27.2s24.25.58,27.23-.14,9.72,3.34,4.55,13.07,2.33,17.52,10.9,15.61,9.28-8.62,5.9-13.83-5.32-15,1.78-15,29.1-.15,29.1-.15-.5-25-.14-27.2-6.39-9.66-12-5.9-17.13,4.56-17.56-5.88,4-15.32,13.38-10.14,13.48,4.27,16-2.2-.14-27.73-.14-27.73l-79.48.41s-.61,25,.14,27.23,6.76,8.55,13.45,3.66,15.66-1.94,15.7,5.52-2.9,16.68-12.25,11S167.43,643.44,167.47,652Z" transform="translate(-29.13 43.04)"/><path class="cls-5" d="M80.85,314.34l.14,27.2s24.25.58,27.23-.14,9.72,3.34,4.54,13.07,2.33,17.52,10.9,15.61,9.29-8.62,5.9-13.83-5.32-15,1.78-15,29.11-.15,29.11-.15-.5-25-.14-27.2-6.4-9.66-12-5.9-17.14,4.56-17.57-5.88,4-15.32,13.38-10.14,13.48,4.27,16-2.2-.15-27.73-.15-27.73l-79.47.41s-.62,25,.14,27.23,6.76,8.55,13.45,3.66,15.65-1.94,15.69,5.52-2.89,16.68-12.25,11S80.8,305.76,80.85,314.34Z" transform="translate(-29.13 43.04)"/><path class="cls-5" d="M436.73,972.79l.14,27.19s24.25.58,27.23-.14,9.72,3.35,4.55,13.08,2.33,17.52,10.9,15.61,9.28-8.63,5.9-13.84-5.32-15,1.78-15,29.1-.15,29.1-.15-.5-25-.14-27.19-6.39-9.67-12-5.91-17.14,4.57-17.56-5.88,4-15.31,13.38-10.14,13.48,4.28,16-2.2-.14-27.73-.14-27.73l-79.48.41s-.62,25,.14,27.24,6.76,8.54,13.45,3.66,15.65-2,15.7,5.51-2.9,16.69-12.26,11S436.69,964.21,436.73,972.79Z" transform="translate(-29.13 43.04)"/><path class="cls-5" d="M325.67,963.45l.14,27.19s24.26.58,27.24-.14,9.71,3.35,4.54,13.08,2.33,17.52,10.9,15.61,9.28-8.63,5.9-13.83-5.32-15,1.78-15,29.1-.15,29.1-.15-.5-25-.14-27.19-6.39-9.67-12-5.91S376,961.7,375.6,951.25s4-15.31,13.38-10.14,13.48,4.28,16-2.2-.14-27.73-.14-27.73l-79.48.42s-.61,25,.14,27.23,6.76,8.54,13.45,3.66,15.66-2,15.7,5.51-2.9,16.69-12.25,11S325.63,954.87,325.67,963.45Z" transform="translate(-29.13 43.04)"/><path class="cls-5" d="M189.26,772.12l.14,27.2s24.25.58,27.23-.14,9.72,3.34,4.54,13.07,2.33,17.52,10.9,15.61,9.29-8.63,5.9-13.83-5.31-15,1.78-15,29.11-.15,29.11-.15-.5-25-.14-27.2-6.39-9.66-12-5.9-17.14,4.56-17.57-5.88,4-15.32,13.38-10.14,13.48,4.27,16.05-2.2-.15-27.73-.15-27.73l-79.47.41s-.62,25,.14,27.23,6.76,8.55,13.45,3.66,15.65-1.94,15.69,5.52-2.89,16.68-12.25,11S189.21,763.54,189.26,772.12Z" transform="translate(-29.13 43.04)"/><path class="cls-5" d="M441.44,1217.14l.15,27.19s24.25.58,27.23-.14,9.72,3.35,4.54,13.07,2.33,17.53,10.9,15.62,9.28-8.63,5.9-13.84-5.32-15,1.78-15,29.11-.15,29.11-.15-.51-25-.14-27.19-6.4-9.67-12-5.91-17.14,4.56-17.57-5.88,4-15.32,13.38-10.14,13.48,4.28,16-2.2-.15-27.73-.15-27.73l-79.47.41s-.62,25,.14,27.23,6.76,8.55,13.45,3.67,15.65-2,15.69,5.51-2.89,16.68-12.25,11S441.4,1208.56,441.44,1217.14Z" transform="translate(-29.13 43.04)"/><path class="cls-5" d="M675.22,789.51l.14,27.19s24.26.58,27.24-.14,9.71,3.35,4.54,13.07,2.33,17.52,10.9,15.61,9.28-8.62,5.9-13.83-5.32-15,1.78-15,29.1-.15,29.1-.15-.5-24.95-.14-27.19-6.39-9.67-12-5.91-17.14,4.56-17.57-5.88,4-15.32,13.38-10.14,13.48,4.28,16-2.2-.14-27.73-.14-27.73l-79.47.41s-.62,25,.14,27.23,6.76,8.55,13.45,3.67,15.65-1.95,15.69,5.51-2.9,16.68-12.25,11S675.18,780.93,675.22,789.51Z" transform="translate(-29.13 43.04)"/><path class="cls-3" d="M182.17,1041.16l.14,27.19s24.25.58,27.23-.14,9.72,3.35,4.54,13.07,2.33,17.53,10.9,15.62,9.29-8.63,5.9-13.84-5.31-15,1.78-15,29.11-.15,29.11-.15-.5-25-.14-27.19-6.39-9.67-12-5.91-17.14,4.56-17.57-5.88,4-15.32,13.38-10.14,13.48,4.28,16-2.2-.15-27.73-.15-27.73l-79.47.41s-.62,25,.14,27.24,6.76,8.54,13.45,3.66,15.65-2,15.69,5.51-2.89,16.68-12.25,11S182.12,1032.58,182.17,1041.16Z" transform="translate(-29.13 43.04)"/><path class="cls-5" d="M186.88,1285.5l.14,27.2s24.25.58,27.23-.14,9.72,3.34,4.55,13.07,2.33,17.52,10.9,15.61,9.28-8.62,5.9-13.83-5.32-15,1.78-15,29.1-.15,29.1-.15-.5-25-.14-27.2-6.39-9.66-12-5.9-17.13,4.56-17.56-5.88,4-15.32,13.38-10.14,13.48,4.27,16-2.2-.14-27.73-.14-27.73l-79.48.41s-.61,25,.14,27.23,6.76,8.55,13.45,3.66,15.66-1.94,15.7,5.52-2.9,16.68-12.25,11S186.84,1276.92,186.88,1285.5Z" transform="translate(-29.13 43.04)"/><path class="cls-2" d="M78.4,798.35l.14,27.19s24.25.58,27.23-.14,9.72,3.35,4.54,13.08,2.33,17.52,10.9,15.61,9.29-8.63,5.9-13.84-5.31-15,1.78-15,29.11-.15,29.11-.15-.5-25-.14-27.19-6.4-9.67-12-5.91-17.14,4.57-17.57-5.88,4-15.31,13.38-10.14,13.48,4.28,16.05-2.2-.15-27.73-.15-27.73l-79.47.41s-.62,25,.14,27.24,6.76,8.54,13.45,3.66,15.65-1.95,15.69,5.51-2.89,16.69-12.25,11S78.35,789.77,78.4,798.35Z" transform="translate(-29.13 43.04)"/><path class="cls-5" d="M83.11,1042.7l.14,27.19s24.25.58,27.23-.14,9.72,3.35,4.55,13.07,2.33,17.52,10.9,15.62,9.28-8.63,5.9-13.84-5.32-15,1.78-15,29.1-.15,29.1-.15-.5-25-.14-27.19-6.39-9.67-12-5.91-17.13,4.56-17.56-5.88,4-15.32,13.38-10.14,13.48,4.28,16-2.2-.14-27.73-.14-27.73l-79.48.41s-.61,25,.14,27.23,6.76,8.55,13.45,3.67,15.66-2,15.7,5.51-2.9,16.68-12.25,11S83.07,1034.12,83.11,1042.7Z" transform="translate(-29.13 43.04)"/></g></svg>