<svg xmlns="http://www.w3.org/2000/svg" viewBox="0 0 656.97 699.37"><defs><style>.cls-1{fill:#507f85;}.cls-2{fill:#d6d2b5;}.cls-3{fill:#e4b445;}.cls-4{fill:#a1c2c7;}.cls-5{fill:#749fa5;}</style></defs><g id="Lager_2" data-name="Lager 2"><path class="cls-1" d="M428.68,41h79.09V67.47s1.87,10.08,9.7,7.47,8.21-7.09,11.94-7.09,8.58,5.22,7.83,12.31-4.1,14.17-10.44,11.94-8.21-8.58-13.43-5.23-5.6,9-5.6,14.93-.37,18.28-.37,18.28-21.27.37-25.74,0c0,0-8.21-.75-8.58-5.6s2.23-10.07,4.85-12.68,1.86-11.57-9.33-11.2-16,8.21-9,14.55,2.23,14.88-5.23,15.09-25.74,0-25.74,0Z" transform="translate(-316.51 -33.4)"/><path class="cls-1" d="M673.05,37.5h79.09V64s1.86,10.08,9.7,7.46,8.21-7.08,11.94-7.08,8.58,5.22,7.83,12.31-4.1,14.17-10.45,11.94S763,80,757.73,83.38s-5.59,9-5.59,14.92-.37,18.28-.37,18.28-21.27.38-25.75,0c0,0-8.2-.74-8.58-5.59s2.24-10.07,4.85-12.69,1.87-11.56-9.32-11.19-16,8.21-9,14.55,2.24,14.88-5.22,15.09-25.74,0-25.74,0Z" transform="translate(-316.51 -33.4)"/></g><g id="Lager_3" data-name="Lager 3"><path class="cls-2" d="M428.68,235.84V156.55s21.27-1.52,25,.09,8-2.21,9.4-7.76-8.44-8.47-6.5-15.4,17.9-8,21.3-3-1.73,9.21-2.79,11.63-4.21,11.22,1.18,12.76,31.13,1.53,31.13,1.53v29.85c0,2.61-6,5.59-11.19,2.61s-18.66-6.34-18.28,5.22,4.85,14.92,8.58,14.55,7.83-6.71,11.93-6.71,8.58,0,9,3.73,0,30.21,0,30.21-23.51-.37-26.86,0-8.21,4.11-7.46,8.21,5.59,7.46,5.22,13.43-7.84,9-14.18,6.72-10.44-8.58-5.22-14.18,4.1-13.43-4.1-13.43S428.68,235.84,428.68,235.84Z" transform="translate(-316.51 -33.4)"/><path class="cls-2" d="M616.62,369.94V290.65s21.26-1.52,25,.09,8-2.22,9.41-7.77-8.45-8.46-6.5-15.4,17.9-8,21.3-3-1.73,9.21-2.79,11.63-4.21,11.22,1.18,12.76,31.12,1.53,31.12,1.53v29.85c0,2.61-6,5.59-11.19,2.61s-18.65-6.34-18.28,5.22,4.85,14.92,8.58,14.55,7.84-6.72,11.94-6.72,8.58,0,9,3.74,0,30.21,0,30.21-23.5-.37-26.86,0-8.2,4.11-7.46,8.21,5.6,7.46,5.23,13.43-7.84,8.95-14.18,6.72-10.45-8.58-5.22-14.18,4.1-13.43-4.11-13.43S616.62,369.94,616.62,369.94Z" transform="translate(-316.51 -33.4)"/><path class="cls-3" d="M673.05,232.35V153.06s21.26-1.52,25,.09,8-2.22,9.41-7.77S699,136.92,701,130s17.9-8,21.3-3-1.73,9.21-2.79,11.63-4.21,11.22,1.18,12.76,31.13,1.53,31.13,1.53v29.85c0,2.61-6,5.59-11.2,2.61s-18.65-6.34-18.28,5.22,4.85,14.92,8.58,14.55,7.84-6.72,11.94-6.72,8.58,0,9,3.74,0,30.21,0,30.21-23.51-.37-26.87,0-8.2,4.11-7.46,8.21S723,248,722.67,254s-7.84,8.95-14.18,6.72-10.45-8.58-5.22-14.18,4.1-13.43-4.11-13.43S673.05,232.35,673.05,232.35Z" transform="translate(-316.51 -33.4)"/><path class="cls-2" d="M683.71,624.85v-79.3s21.26-1.52,25,.09,8-2.21,9.41-7.76-8.45-8.46-6.5-15.4,17.9-8,21.3-3-1.73,9.21-2.79,11.63-4.21,11.22,1.18,12.75,31.13,1.53,31.13,1.53v29.85c0,2.61-6,5.6-11.2,2.61s-18.65-6.34-18.28,5.22,4.85,14.93,8.58,14.55,7.84-6.71,11.94-6.71,8.58,0,9,3.73,0,30.22,0,30.22-23.51-.38-26.86,0-8.21,4.1-7.47,8.2,5.6,7.47,5.23,13.43-7.84,9-14.18,6.72-10.45-8.58-5.22-14.18,4.1-13.43-4.11-13.43S683.71,624.85,683.71,624.85Z" transform="translate(-316.51 -33.4)"/><path class="cls-4" d="M521.4,623.91l.73,79.29s-21.25,1.71-25,.14-8,2.29-9.33,7.85,8.52,8.39,6.64,15.34-17.83,8.2-21.28,3.21,1.65-9.23,2.69-11.66,4.1-11.25-1.3-12.74-31.14-1.25-31.14-1.25l-.27-29.84c0-2.61,5.92-5.65,11.17-2.72s18.71,6.18,18.23-5.39-5-14.87-8.71-14.47-7.78,6.79-11.88,6.83-8.58.08-9-3.65-.27-30.22-.27-30.22,23.5.16,26.86-.24,8.16-4.18,7.38-8.28-5.66-7.41-5.34-13.38,7.75-9,14.11-6.85,10.52,8.49,5.35,14.13-4,13.47,4.23,13.39S521.4,623.91,521.4,623.91Z" transform="translate(-316.51 -33.4)"/><path class="cls-3" d="M740.14,487.26V408s21.27-1.52,25,.09,8-2.21,9.4-7.76-8.44-8.46-6.5-15.4,17.9-8,21.3-3-1.73,9.21-2.79,11.63-4.21,11.22,1.18,12.75,31.13,1.53,31.13,1.53v29.85c0,2.61-6,5.6-11.19,2.61s-18.66-6.34-18.28,5.22S794.24,460.4,798,460s7.83-6.71,11.93-6.71,8.58,0,9,3.73,0,30.22,0,30.22-23.51-.38-26.86,0-8.21,4.1-7.46,8.2,5.59,7.47,5.22,13.43-7.84,9-14.18,6.72-10.44-8.58-5.22-14.18,4.1-13.43-4.1-13.43S740.14,487.26,740.14,487.26Z" transform="translate(-316.51 -33.4)"/></g><g id="Lager_4" data-name="Lager 4"><path class="cls-3" d="M631.5,36.89H553.15s-.63,24.35,0,26.49,3.36,10.94,9.7,7.46,11.07-9.53,14.41-6.4,7.38,6.77,5.44,15.35S575.52,91.12,569.92,87s-15.66-8.76-16.24,3.62-.9,25.41-.9,25.41,28.13.75,29.92,0,4.77,5.6,4.77,9-7.68,8.95-4.77,14.92,13.73,8.21,18.21,3.73.74-11.57-3-14.55-1.86-12.54,6-12.8,27.61,0,27.61,0S631.12,90,631.5,87s-3.73-6.78-8.58-4.92-14.55,10.08-19,.75-.37-14.92,4.85-16.79,9.7,5.22,13.06,5.6,10.12-4.85,9.72-9S631.5,36.89,631.5,36.89Z" transform="translate(-316.51 -33.4)"/><path class="cls-4" d="M875.86,33.4H797.52s-.63,24.35,0,26.49,3.36,10.94,9.7,7.46,11.07-9.53,14.41-6.4,7.38,6.77,5.44,15.35-7.19,11.33-12.78,7.16-15.66-8.76-16.24,3.62-.9,25.41-.9,25.41,28.13.75,29.92,0,4.77,5.6,4.77,9-7.68,9-4.77,14.93,13.73,8.2,18.2,3.73.75-11.57-3-14.55-1.87-12.54,6-12.8,27.6,0,27.6,0-.37-26.24,0-29.29-3.73-6.78-8.58-4.92-14.55,10.07-19,.75-.38-14.92,4.85-16.79,9.7,5.22,13,5.6,10.12-4.85,9.73-9S875.86,33.4,875.86,33.4Z" transform="translate(-316.51 -33.4)"/></g><g id="Lager_5" data-name="Lager 5"><path class="cls-4" d="M551.72,237.71h29.92c3.29,0,5.68-11.2,0-13.43s-3.8-15.67,7-15.67,14.92,1.12,14.92,6.71-6.34,10.45-6.34,13.06.37,7.46,6.34,7.83,26.9,1.5,26.9,1.5-.33-28,0-29.1,4.81-6.34,8.91-5.6,12.69,10.45,19,3.73,3-16.79,0-17.16-9.33.75-14.55,3.36-13.72-2.61-13.39-9,0-25.48,0-25.48-25-.49-27.61,0-10.82,1.58-6,12.8,10.08,12.19-3,16.91-16.56-12.78-9.77-16.34-.52-13.85-2.47-13.63-29.92,0-29.92,0V186.6c0,1.49-1.51,7-11.19,4.1S521.36,187,522.37,198s7.47,16.3,14.31,9,14.91-3.57,15,.53S551.72,237.71,551.72,237.71Z" transform="translate(-316.51 -33.4)"/><path class="cls-2" d="M796.09,234.22H826c3.28,0,5.68-11.2,0-13.44s-3.8-15.66,7-15.66S848,206.24,848,211.83s-6.34,10.45-6.34,13.06.37,7.46,6.34,7.83,26.9,1.5,26.9,1.5-.33-28,0-29.1,4.81-6.35,8.91-5.6,12.69,10.45,19,3.73,3-16.79,0-17.16-9.33.75-14.55,3.36-13.72-2.61-13.39-9,0-25.48,0-25.48-25-.49-27.61,0-10.82,1.58-6,12.8,10.07,12.19-3,16.91-16.56-12.78-9.78-16.34S828,154.53,826,154.75s-29.92,0-29.92,0v28.36c0,1.49-1.51,6.95-11.19,4.1s-19.17-3.74-18.17,7.27,7.48,16.3,14.32,9,14.9-3.57,15,.53S796.09,234.22,796.09,234.22Z" transform="translate(-316.51 -33.4)"/><path class="cls-4" d="M618.82,492.61h29.92c3.28,0,5.67-11.19,0-13.43s-3.81-15.67,7-15.67,14.92,1.12,14.92,6.72-6.34,10.44-6.34,13,.37,7.46,6.34,7.84,26.9,1.49,26.9,1.49-.33-28,0-29.1,4.81-6.34,8.92-5.6,12.68,10.45,19,3.73,3-16.78,0-17.16-9.33.75-14.55,3.36-13.72-2.61-13.39-8.95,0-25.49,0-25.49-25-.48-27.61,0-10.81,1.58-6,12.8,10.07,12.19-3,16.92-16.56-12.79-9.77-16.34-.51-13.86-2.46-13.63-29.92,0-29.92,0V441.5c0,1.49-1.51,6.95-11.2,4.1s-19.17-3.73-18.16,7.28,7.47,16.29,14.31,9,14.91-3.57,15.05.53S618.82,492.61,618.82,492.61Z" transform="translate(-316.51 -33.4)"/><path class="cls-2" d="M863.18,489.12h29.93c3.28,0,5.67-11.19,0-13.43s-3.81-15.67,7-15.67S915,461.14,915,466.73s-6.34,10.45-6.34,13.06.37,7.46,6.34,7.84,26.9,1.49,26.9,1.49-.33-28,0-29.1,4.81-6.34,8.91-5.6,12.69,10.45,19,3.73,3-16.78,0-17.16-9.33.75-14.55,3.36-13.72-2.61-13.39-9,0-25.49,0-25.49-25-.48-27.61,0-10.82,1.58-6,12.8,10.08,12.19-3,16.92-16.56-12.79-9.77-16.35-.52-13.85-2.46-13.62-29.93,0-29.93,0V438c0,1.49-1.51,6.95-11.19,4.1s-19.17-3.73-18.16,7.28,7.47,16.29,14.31,9,14.91-3.57,15,.53S863.18,489.12,863.18,489.12Z" transform="translate(-316.51 -33.4)"/></g><g id="Lager_6" data-name="Lager 6"><path class="cls-5" d="M544.62,348.38h27.19s.7-24.24,0-27.23,3.4-9.7,13.1-4.48,17.53-2.24,15.67-10.82-8.58-9.32-13.81-6-15,5.24-15-1.85,0-29.11,0-29.11-25,.38-27.2,0-9.7,6.34-6,11.94,4.47,17.16-6,17.53-15.3-4.1-10.08-13.43,4.35-13.46-2.11-16-27.73,0-27.73,0v79.48s25,.74,27.23,0,8.58-6.71,3.73-13.43-1.87-15.66,5.59-15.66,16.67,3,11,12.3S536,348.38,544.62,348.38Z" transform="translate(-316.51 -33.4)"/><path class="cls-5" d="M789,344.89h27.2s.7-24.25,0-27.23,3.4-9.7,13.1-4.48,17.53-2.24,15.67-10.82-8.59-9.33-13.81-6-15,5.24-15-1.85,0-29.11,0-29.11-24.95.38-27.19,0-9.7,6.34-6,11.93,4.48,17.16-6,17.54-15.3-4.1-10.08-13.43,4.35-13.46-2.12-16.06-27.73,0-27.73,0l0,79.48s25,.74,27.23,0,8.58-6.71,3.73-13.43-1.87-15.66,5.59-15.67,16.67,3,11,12.31S780.4,344.89,789,344.89Z" transform="translate(-316.51 -33.4)"/><path class="cls-3" d="M611.71,603.28H638.9s.7-24.25,0-27.24,3.39-9.7,13.09-4.47,17.54-2.25,15.67-10.83-8.58-9.32-13.8-6-15,5.24-15-1.86,0-29.11,0-29.11-25,.38-27.2,0-9.69,6.34-6,11.94,4.48,17.16-6,17.53-15.3-4.1-10.07-13.43,4.34-13.46-2.12-16.05-27.73,0-27.73,0v79.48s25,.74,27.23,0,8.58-6.72,3.73-13.44-1.86-15.66,5.6-15.66,16.66,3,10.94,12.3S603.13,603.28,611.71,603.28Z" transform="translate(-316.51 -33.4)"/><path class="cls-5" d="M856.08,599.79h27.19s.7-24.25,0-27.24,3.4-9.7,13.1-4.48,17.53-2.24,15.67-10.82-8.58-9.32-13.81-6-15,5.24-15-1.86,0-29.11,0-29.11-25,.38-27.2,0-9.7,6.34-6,11.94,4.48,17.16-6,17.53-15.3-4.1-10.08-13.43,4.35-13.46-2.11-16-27.73,0-27.73,0V599.8s25,.74,27.23,0,8.58-6.71,3.73-13.43-1.87-15.66,5.6-15.66,16.66,3,10.94,12.3S847.49,599.79,856.08,599.79Z" transform="translate(-316.51 -33.4)"/><path class="cls-2" d="M368.38,705.83h27.2s.7-24.25,0-27.23,3.4-9.7,13.1-4.48,17.53-2.24,15.66-10.82-8.58-9.33-13.8-6-15,5.24-15-1.86,0-29.1,0-29.1-24.95.37-27.19,0-9.7,6.35-6,11.94,4.48,17.16-6,17.54-15.3-4.11-10.08-13.43,4.35-13.46-2.12-16.06-27.73,0-27.73,0l0,79.47s25,.75,27.23,0,8.58-6.72,3.73-13.43-1.87-15.66,5.59-15.67,16.67,3,10.95,12.31S359.8,705.84,368.38,705.83Z" transform="translate(-316.51 -33.4)"/><path class="cls-5" d="M612.75,702.34h27.19s.71-24.25,0-27.23,3.4-9.7,13.1-4.48,17.53-2.24,15.66-10.82-8.58-9.33-13.8-6-15,5.24-15-1.86,0-29.1,0-29.1-24.95.37-27.19,0-9.7,6.34-6,11.94,4.48,17.16-6,17.54-15.29-4.11-10.07-13.43,4.34-13.46-2.12-16.06-27.73,0-27.73,0v79.48s25,.74,27.24,0,8.58-6.72,3.73-13.43-1.87-15.67,5.59-15.67,16.67,3,10.95,12.31S604.17,702.35,612.75,702.34Z" transform="translate(-316.51 -33.4)"/></g></svg>